<?xml version="1.0" encoding="utf-8"?>
<!-- Generator: Adobe Illustrator 23.0.5, SVG Export Plug-In . SVG Version: 6.00 Build 0)  -->
<svg version="1.1" id="Capa_1" xmlns="http://www.w3.org/2000/svg" xmlns:xlink="http://www.w3.org/1999/xlink" x="0px" y="0px"
     viewBox="0 0 717.7 210.2" style="enable-background:new 0 0 717.7 210.2;" xml:space="preserve">
<style type="text/css">
	.st0{fill:#FFFFFF;}
</style>
  <g>
	<path class="st0" d="M252.4,150.6c-5.9,0.4-9.4,0.4-12.7-0.1c-2.2-0.3-3.4-1.6-4.6-5c-1.3-3.9-2.5-7.8-3.8-11.7
		c-1.3-3.8-2.9-4.8-6.8-4.8h-27.4c-3.9,0.1-5.2,1.4-6.8,6.3c-0.9,3.1-2.1,6.8-3.7,11.2c-1,2.9-3,4.3-5.9,4.3
		c-3.9,0-7.8,0.3-11.7-0.1c-3.1-0.4-4-2-3-5.6l8.6-26.8c6.1-19.1,12.4-38,18.5-57c1.3-3.8,2.7-4.8,6.8-4.8h11.9
		c3.5,0.1,8-0.3,12.4,0.1c2.2,0.3,3.5,1.7,4.7,5.2c8.9,27.1,17.6,54.3,26.5,81.6c0.3,1,0.5,2.2,0.8,3.7
		C256.7,149.3,255.5,150.5,252.4,150.6z M216.9,108.9c4.4-0.1,5.6-1.7,4.4-5.9c-0.8-2.5-1.6-5.2-2.7-8.6c-1.8-5.2-3.1-10.7-5.6-15.8
		c-0.4-0.8-0.8-1.8-1.8-1.8c-0.8,0-1.3,0.5-2,1.8c-3.4,8.2-5.9,16.7-8.5,25.1c-1,3.5,0.3,5.2,4.2,5.2H216.9z"/>
    <path class="st0" d="M327.1,109.4v34.5c0,1,0,2-0.3,2.9c-0.4,2.6-1.3,3.5-4.4,3.7c-3.5,0.3-7,0.3-10.4,0c-3.5-0.1-4.7-1.7-4.7-5.2
		v-33.7c0-2.6-0.1-5.1-0.7-7.7c-0.8-3.4-2.9-5.6-6.4-6.1c-3.5-0.5-7-0.7-10.4,0c-4.2,0.9-6.5,3.8-6.8,9c-0.5,12.3,0,24.7-0.1,36.9
		c0,1-0.1,2.1-0.3,3.1c-0.4,2.6-1.4,3.5-4.4,3.7c-3.4,0.3-6.9,0.3-10.4,0c-3.5-0.1-4.7-1.6-4.7-5.2V85.9c0-3.7,1.2-5.1,5-5.2
		c3.7-0.3,7.3-0.4,11.1,0.1c2.5,0.3,3.7,1.8,3.7,5c0.1,0.8-0.3,1.7,0.4,2.1c0.9,0.4,1.6-0.4,2.2-0.9c2.9-2,5.2-4.6,8.4-6
		c4.4-2.1,9.1-1.7,13.7-1.6c3.8,0.1,7.4,0.5,11,2.2c5.4,2.5,7.2,7.2,8,12.5C327.2,99.1,327.1,104.3,327.1,109.4z"/>
    <path class="st0" d="M407.2,113c-0.1,9.3-0.1,18.4-0.1,27.7c0.1,15-8.9,24.4-19.1,28.7c-4.6,2.1-9.7,2.2-14.6,2.2
		c-7.3,0.1-14.6,0.1-21.9,0.1c-3.8,0-4.8-1-5-4.8c0-2.1-0.1-4.2,0-6.1c0.3-3.5,1.8-5,5.4-5.1c6.8-0.1,13.6-0.1,20.4-0.3
		c2.9,0,5.9-0.3,8.7-1c4.3-1.2,6.3-3.8,6.5-8.5l0.1-2.2c0-2.6-0.7-3.1-3.3-2.7c-4.8,0.9-9.4,2.9-14.2,3.4c-8.9,1-17.7,1-26-2.9
		c-5.9-2.9-8.4-8.2-9.3-14.1c-1.8-11.2-2.1-22.3,0.7-33.4c2-7.6,7-12,14.7-13.4c8-1.6,16.2-1.8,24.3,0c3.4,0.8,6,3,9,4.7l1,0.5
		c1.7,0.9,2.6,0.4,2.7-1.6c0.3-3,0.7-3.4,3.7-3.5c4,0,8.2-0.3,12.4,0.3c2.7,0.3,3.8,2,3.8,5.6V113z M387.1,119.3
		c0.8-4.6,0.8-9.1,0.1-13.6c-0.7-4.6-2.7-7.8-7.4-9c-3.3-0.9-6.5-0.9-9.9-1l-5.6,0.4c-5.9,0.7-9.1,3.3-10.2,8.9
		c-0.9,4.7-0.8,9.7,0,14.4c0.8,4.7,3.4,7.6,8,8.5c5.1,1,10.3,1,15.4,0.3C383.6,127.1,386.2,124.6,387.1,119.3z"/>
    <path class="st0" d="M482.1,119c-0.1,2.3-1.7,3.5-5.1,3.5h-36.5c-2.2,0.1-3.1,0.9-3.5,3.1c-0.4,1.7-0.5,3.5-0.3,5.2
		c0.4,2.7,2.5,4.4,6.3,5c6.7,0.9,13.3,0.4,20,0.3c5.2-0.1,7.8,2,7.8,7.3c0,1.4,0.1,2.9-0.3,4.4c-0.7,2.9-2.7,4.4-6.1,4.3
		c-8.2,0-16.6,0.4-24.9-0.4c-6.5-0.7-13.1-1.7-18.3-6.4c-4-3.8-5.7-8.7-6.5-14.1c-1.6-11.7-1.8-23.4,0.8-35
		c2.3-9.8,9.1-14.6,18.7-15.9c9.8-1.4,19.7-1.6,29.5,0.3c10.3,2,15.5,8.6,17.4,18.5C482.1,105.7,482.4,112.4,482.1,119z M443.6,95.4
		c-6,0.4-8.2,2.9-8,8.9c0.1,4,2.1,5.9,6.1,5.9h15.7c3-0.1,3.7-0.7,3.5-3.3l-0.3-4c-0.1-3.9-1.8-6.1-5.6-6.9
		C451.3,95,447.4,95.2,443.6,95.4z"/>
    <path class="st0" d="M595.9,112.1v33.7c0,3.4-1.6,4.8-4.8,4.8c-3.4,0.1-6.8,0.1-10.2,0c-3.1,0-4.6-1.6-4.6-4.6
		c-0.1-11.6-0.1-23.2-0.1-34.8c0-2.1-0.1-4.3-0.5-6.4c-0.9-4.8-3.4-6.9-8.4-7.3c-2.5-0.1-4.8-0.1-7.2,0.3c-5,0.8-7.2,3.4-7.4,9.1
		c-0.7,12.1-0.1,24.3-0.3,36.5c0,1,0,2.2-0.1,3.3c-0.3,2.3-1.4,3.5-3.8,3.8c-3.9,0.4-7.7,0.4-11.6,0.1c-3.1-0.3-4.2-1.8-4.2-5.5
		l-0.1-33.8c0-2.3,0-4.8-0.5-7.2c-0.9-3.9-3-5.9-6.9-6.5c-3-0.4-6.1-0.4-9.1,0.1c-4.3,0.8-6.5,3.5-6.8,8.7
		c-0.7,10.3-0.1,20.6-0.3,30.9c-0.1,2.9,0,5.9-0.1,8.9c-0.3,2.9-1.3,4-4.2,4.3c-3.8,0.3-7.6,0.3-11.4,0c-3-0.4-4.2-1.8-4.2-5.3V85.9
		c0.3-3.4,1.4-4.8,4.7-5c3.8-0.3,7.7-0.1,11.5,0c1.7,0.1,2.9,1.2,3.3,2.9c0.3,1,0.5,2,0.9,3c0.4,0.9,1.2,1,2,0.5
		c0.8-0.7,1.7-1.3,2.3-2.1c4.7-5.1,10.8-6,17.2-5.7c2.1,0.1,4.2,0.1,6.1,0.5c3.5,0.7,6.4,2.3,8.7,5.1c2.7,3.5,4.8,3.7,8.1,0.7
		c4.8-4.8,10.8-6.3,17.5-6.3c3.7,0,7.3,0,10.8,0.8c8,1.6,11.7,5.6,12.9,14C596.2,100.2,595.9,106.2,595.9,112.1z"/>
    <path class="st0" d="M666.7,125.4c0,6.9,0.1,13.7,0,20.6c0,3-1.6,4.4-4.7,4.6c-2.6,0.1-5.4,0.1-8,0c-3.5-0.1-6.4-3.3-6.4-7v-0.4
		l-0.3,0.3c-5.9,7.3-13.7,9-22.6,8.5c-3.7-0.1-7.3-0.3-11-1c-6.3-1.4-9.8-5.2-10.7-11.5c-1-6-1-12.1,0.1-18.3
		c1.3-7,5.3-10.8,13.2-12.1c10.4-1.6,20.9-2.1,31.1,1.8c0.1,0,0.3-0.1,0.3-0.1c0-3.1,0.1-6.3-1.4-9.1c-1.6-3.3-4.7-4-8-4.4
		c-7-0.8-14,0-20.9,1.8c-2.6,0.8-4.3-0.1-5.5-2.7c-1-2.3-1.7-4.7-2.2-7.2c-0.7-2.5,0.3-4,2.6-5.1c6.7-2.7,13.6-4,20.8-4
		c5.7,0,11.5-0.1,17,1.7c8.6,2.9,15.9,12.5,16.4,21.7C667.1,110.6,666.7,118,666.7,125.4z M648.1,122.8c0-0.3-0.1-0.4-0.4-0.5
		c-5.9-2.9-12-2.7-18.3-2.1c-3.4,0.3-6.4,1.3-7.3,5.2c-0.7,2.3-0.7,4.7-0.3,7.2c0.5,3.3,2,4.6,5.1,5.2c2,0.4,3.9,0.4,5.9,0.5
		l6.3-0.4c5.1-0.5,7.7-2.7,8.6-7C648.2,128.2,648.1,125.6,648.1,122.8z"/>
</g>
  <g>
	<polyline class="st0" points="43.6,127.7 15.5,114.2 62.4,32.9 98.4,32.9 33.5,145.3 	"/>
    <polygon class="st0" points="62.4,32.9 51.4,114.2 98.4,32.9 	"/>
    <g>
		<path class="st0" d="M122.3,74.2L98.4,32.9h-36l35.7,61.9C107,89.6,115.3,82.9,122.3,74.2z"/>
      <path class="st0" d="M133.2,93.2c-4.2,10-10.3,20-19.4,28.7l13.5,23.4l18-31.1L133.2,93.2z"/>
	</g>
    <path class="st0" d="M120.9,114.2c-11,13.8-27.7,25.6-52.9,31.1h59.3l18-31.1H120.9z"/>
</g>
  <path class="st0" d="M33.5,145.3c0,0-0.2-13.9-18-31.1c0,0,106.7,12.5,124.9-76.8C140.4,37.4,152.3,145.3,33.5,145.3z"/>
  <path class="st0" d="M33.5,145.3c0,0,88.7-18.6,107-107.9C140.4,37.4,152.3,145.3,33.5,145.3z"/>
</svg>
