<?xml version="1.0" encoding="utf-8"?>
<!-- Generator: Adobe Illustrator 23.0.5, SVG Export Plug-In . SVG Version: 6.00 Build 0)  -->
<svg version="1.1" id="Capa_1" xmlns="http://www.w3.org/2000/svg" xmlns:xlink="http://www.w3.org/1999/xlink" x="0px" y="0px"
	 viewBox="0 0 512 384.4" style="enable-background:new 0 0 512 384.4;" xml:space="preserve">
<style type="text/css">
	.st0{fill:#FFFFFF;}
</style>
<g id="LBbEjg.tif">
	<g>
		<path class="st0" d="M512,183c0,6,0,12,0,18c-1.7,6.1-3.7,12.1-7.3,17.4c-11,16.1-26.9,21.7-45.7,21.7
			c-135.3-0.1-270.6,0-405.9-0.1c-5.3,0-10.7-0.2-15.9-1.4C17,233.9,5.1,220.8,0,201c0-6,0-12,0-18c2-7.8,5.1-15.1,10.3-21.4
			c11-13.2,25.6-17.7,42.2-17.6c135.6,0.1,271.3,0,406.9,0.1c5,0,10.1,0.1,14.9,1.2C494.8,149.9,506.9,163,512,183z"/>
		<path class="st0" d="M0,57c0-6.3,0-12.7,0-19C5.4,17.5,18.5,4.9,39,0c144.7,0,289.3,0,434,0c20.6,4.9,33.6,17.5,39,38
			c0,6.3,0,12.7,0,19c-0.5,1.4-1,2.8-1.5,4.2c-6.9,20.9-24.5,34-46.7,34c-138.6,0.1-277.2,0-415.8,0c-6.4,0-12.6-1.1-18.5-3.5
			C13.7,85.4,4.5,73.2,0,57z"/>
		<path class="st0" d="M0,346c0-6.3,0-12.7,0-19c5.9-23.4,24.9-38.7,53.6-38.5c106.1,0.5,212.2,0.2,318.3,0.2c30.7,0,61.3-0.1,92,0
			c13.6,0,25.4,4.7,35.1,14.4c6.7,6.7,10.4,14.9,13,23.9c0,6.3,0,12.7,0,19c-0.3,0.9-0.6,1.9-0.9,2.8c-7.3,22.9-24.4,35.5-48.5,35.5
			c-137.7,0-275.5,0-413.2,0c-5,0-10-0.3-14.8-1.8C15.9,377.1,4.9,364.4,0,346z"/>
	</g>
</g>
</svg>
